<svg id="mermaid-1667233093377" width="400" xmlns="http://www.w3.org/2000/svg" height="100" viewBox="768 0 512 512" style="background-color: rgb(255, 255, 255);"><style xmlns="http://www.w3.org/1999/xhtml">#mermaid-1667233093377 {font-family:"trebuchet ms",verdana,arial,sans-serif;font-size:16px;fill:#333;}#mermaid-1667233093377 .error-icon{fill:#552222;}#mermaid-1667233093377 .error-text{fill:#552222;stroke:#552222;}#mermaid-1667233093377 .edge-thickness-normal{stroke-width:2px;}#mermaid-1667233093377 .edge-thickness-thick{stroke-width:3.5px;}#mermaid-1667233093377 .edge-pattern-solid{stroke-dasharray:0;}#mermaid-1667233093377 .edge-pattern-dashed{stroke-dasharray:3;}#mermaid-1667233093377 .edge-pattern-dotted{stroke-dasharray:2;}#mermaid-1667233093377 .marker{fill:#333333;stroke:#333333;}#mermaid-1667233093377 .marker.cross{stroke:#333333;}#mermaid-1667233093377 svg{font-family:"trebuchet ms",verdana,arial,sans-serif;font-size:16px;}#mermaid-1667233093377 .mermaid-main-font{font-family:"trebuchet ms",verdana,arial,sans-serif;font-family:var(--mermaid-font-family);}#mermaid-1667233093377 .exclude-range{fill:#eeeeee;}#mermaid-1667233093377 .section{stroke:none;opacity:0.2;}#mermaid-1667233093377 .section0{fill:rgba(102, 102, 255, 0.49);}#mermaid-1667233093377 .section2{fill:#fff400;}#mermaid-1667233093377 .section1,#mermaid-1667233093377 .section3{fill:white;opacity:0.2;}#mermaid-1667233093377 .sectionTitle0{fill:#333;}#mermaid-1667233093377 .sectionTitle1{fill:#333;}#mermaid-1667233093377 .sectionTitle2{fill:#333;}#mermaid-1667233093377 .sectionTitle3{fill:#333;}#mermaid-1667233093377 .sectionTitle{text-anchor:start;font-family:'trebuchet ms',verdana,arial,sans-serif;font-family:var(--mermaid-font-family);}#mermaid-1667233093377 .grid .tick{stroke:lightgrey;opacity:0.8;shape-rendering:crispEdges;}#mermaid-1667233093377 .grid .tick text{font-family:"trebuchet ms",verdana,arial,sans-serif;fill:#333;}#mermaid-1667233093377 .grid path{stroke-width:0;}#mermaid-1667233093377 .today{fill:none;stroke:red;stroke-width:2px;}#mermaid-1667233093377 .task{stroke-width:2;}#mermaid-1667233093377 .taskText{text-anchor:middle;font-family:'trebuchet ms',verdana,arial,sans-serif;font-family:var(--mermaid-font-family);}#mermaid-1667233093377 .taskTextOutsideRight{fill:black;text-anchor:start;font-family:'trebuchet ms',verdana,arial,sans-serif;font-family:var(--mermaid-font-family);}#mermaid-1667233093377 .taskTextOutsideLeft{fill:black;text-anchor:end;}#mermaid-1667233093377 .task.clickable{cursor:pointer;}#mermaid-1667233093377 .taskText.clickable{cursor:pointer;fill:#003163!important;font-weight:bold;}#mermaid-1667233093377 .taskTextOutsideLeft.clickable{cursor:pointer;fill:#003163!important;font-weight:bold;}#mermaid-1667233093377 .taskTextOutsideRight.clickable{cursor:pointer;fill:#003163!important;font-weight:bold;}#mermaid-1667233093377 .taskText0,#mermaid-1667233093377 .taskText1,#mermaid-1667233093377 .taskText2,#mermaid-1667233093377 .taskText3{fill:white;}#mermaid-1667233093377 .task0,#mermaid-1667233093377 .task1,#mermaid-1667233093377 .task2,#mermaid-1667233093377 .task3{fill:#8a90dd;stroke:#534fbc;}#mermaid-1667233093377 .taskTextOutside0,#mermaid-1667233093377 .taskTextOutside2{fill:black;}#mermaid-1667233093377 .taskTextOutside1,#mermaid-1667233093377 .taskTextOutside3{fill:black;}#mermaid-1667233093377 .active0,#mermaid-1667233093377 .active1,#mermaid-1667233093377 .active2,#mermaid-1667233093377 .active3{fill:#bfc7ff;stroke:#534fbc;}#mermaid-1667233093377 .activeText0,#mermaid-1667233093377 .activeText1,#mermaid-1667233093377 .activeText2,#mermaid-1667233093377 .activeText3{fill:black!important;}#mermaid-1667233093377 .done0,#mermaid-1667233093377 .done1,#mermaid-1667233093377 .done2,#mermaid-1667233093377 .done3{stroke:grey;fill:lightgrey;stroke-width:2;}#mermaid-1667233093377 .doneText0,#mermaid-1667233093377 .doneText1,#mermaid-1667233093377 .doneText2,#mermaid-1667233093377 .doneText3{fill:black!important;}#mermaid-1667233093377 .crit0,#mermaid-1667233093377 .crit1,#mermaid-1667233093377 .crit2,#mermaid-1667233093377 .crit3{stroke:#ff8888;fill:red;stroke-width:2;}#mermaid-1667233093377 .activeCrit0,#mermaid-1667233093377 .activeCrit1,#mermaid-1667233093377 .activeCrit2,#mermaid-1667233093377 .activeCrit3{stroke:#ff8888;fill:#bfc7ff;stroke-width:2;}#mermaid-1667233093377 .doneCrit0,#mermaid-1667233093377 .doneCrit1,#mermaid-1667233093377 .doneCrit2,#mermaid-1667233093377 .doneCrit3{stroke:#ff8888;fill:lightgrey;stroke-width:2;cursor:pointer;shape-rendering:crispEdges;}#mermaid-1667233093377 .milestone{transform:rotate(45deg) scale(0.8,0.8);}#mermaid-1667233093377 .milestoneText{font-style:italic;}#mermaid-1667233093377 .doneCritText0,#mermaid-1667233093377 .doneCritText1,#mermaid-1667233093377 .doneCritText2,#mermaid-1667233093377 .doneCritText3{fill:black!important;}#mermaid-1667233093377 .activeCritText0,#mermaid-1667233093377 .activeCritText1,#mermaid-1667233093377 .activeCritText2,#mermaid-1667233093377 .activeCritText3{fill:black!important;}#mermaid-1667233093377 .titleText{text-anchor:middle;font-size:18px;fill:#333;font-family:'trebuchet ms',verdana,arial,sans-serif;font-family:var(--mermaid-font-family);}#mermaid-1667233093377 :root{--mermaid-font-family:"trebuchet ms",verdana,arial,sans-serif;}</style><g/><g><path class="error-icon" d="m411.313,123.313c6.25-6.25 6.25-16.375 0-22.625s-16.375-6.25-22.625,0l-32,32-9.375,9.375-20.688-20.688c-12.484-12.5-32.766-12.5-45.25,0l-16,16c-1.261,1.261-2.304,2.648-3.31,4.051-21.739-8.561-45.324-13.426-70.065-13.426-105.867,0-192,86.133-192,192s86.133,192 192,192 192-86.133 192-192c0-24.741-4.864-48.327-13.426-70.065 1.402-1.007 2.79-2.049 4.051-3.31l16-16c12.5-12.492 12.5-32.758 0-45.25l-20.688-20.688 9.375-9.375 32.001-31.999zm-219.313,100.687c-52.938,0-96,43.063-96,96 0,8.836-7.164,16-16,16s-16-7.164-16-16c0-70.578 57.422-128 128-128 8.836,0 16,7.164 16,16s-7.164,16-16,16z"/><path class="error-icon" d="m459.02,148.98c-6.25-6.25-16.375-6.25-22.625,0s-6.25,16.375 0,22.625l16,16c3.125,3.125 7.219,4.688 11.313,4.688 4.094,0 8.188-1.563 11.313-4.688 6.25-6.25 6.25-16.375 0-22.625l-16.001-16z"/><path class="error-icon" d="m340.395,75.605c3.125,3.125 7.219,4.688 11.313,4.688 4.094,0 8.188-1.563 11.313-4.688 6.25-6.25 6.25-16.375 0-22.625l-16-16c-6.25-6.25-16.375-6.25-22.625,0s-6.25,16.375 0,22.625l15.999,16z"/><path class="error-icon" d="m400,64c8.844,0 16-7.164 16-16v-32c0-8.836-7.156-16-16-16-8.844,0-16,7.164-16,16v32c0,8.836 7.156,16 16,16z"/><path class="error-icon" d="m496,96.586h-32c-8.844,0-16,7.164-16,16 0,8.836 7.156,16 16,16h32c8.844,0 16-7.164 16-16 0-8.836-7.156-16-16-16z"/><path class="error-icon" d="m436.98,75.605c3.125,3.125 7.219,4.688 11.313,4.688 4.094,0 8.188-1.563 11.313-4.688l32-32c6.25-6.25 6.25-16.375 0-22.625s-16.375-6.25-22.625,0l-32,32c-6.251,6.25-6.251,16.375-0.001,22.625z"/><text class="error-text" x="1240" y="250" font-size="150px" style="text-anchor: middle;">Syntax error in graph</text><text class="error-text" x="1050" y="400" font-size="100px" style="text-anchor: middle;">mermaid version 9.1.3</text></g></svg>